{"title":"BBC Horizon Special #23 - The Science of Star Trek (26 August 19","uid":8866234,"size":1002031740,"categoryP":"video","categoryS":"movies","magnet":"?xt=urn:btih:0e57f8d34d91c2aefa0b198816a6a5fbd6a0b075&amp;dn=BBC+Horizon+Special+%2323+-+The+Science+of+Star+Trek+%2826+August+19&amp;tr=udp%3A%2F%2Ftracker.openbittorrent.com%3A80&amp;tr=udp%3A%2F%2Fopen.demonii.com%3A1337&amp;tr=udp%3A%2F%2Ftracker.coppersurfer.tk%3A6969&amp;tr=udp%3A%2F%2Fexodus.desync.com%3A6969","seeders":1,"leechers":0,"uploader":"yahoo89","files":1,"time":1377914113,"description":"One of the rare BBC Horizon episodes. As far as I know this one cannot be found in any of publically available (via BitTorrent) episode collections.\n\nAbout Horizon:\n\nHorizon is a current and long-running BBC popular science and philosophy documentary programme.\n\nThe programme was first broadcast on 2 May 1964 with The World of Buckminster Fuller which explored the theories and structures of inventor Richard Buckminster Fuller and included the Horizon mission statement, The aim of Horizon is to provide a platform from which some of the world's greatest scientists and philosophers can communicate their curiosity, observations and reflections, and infuse into our common knowledge their changing views of the universe.[1] &quot;Horizon&quot; continues to be broadcast on BBC Two, and in 2009 added a series of films based on the rich Horizon archive called 'Horizon Guides' on BBC Four.\n\n\nIn this episode:\n\nPart of 1996 Star Trek Night in which Roger Penrose, Stephen Hawking and Lawrence M. Krauss discuss the real science behind the Star Trek.\n\nFurther Info: &lt;a href=&quot;\nhttp://en.memory-alpha.org/wiki/Star_Trek_Night_(UK,_1996)&quot; rel=&quot;nofollow&quot; target=&quot;_NEW&quot;&gt;\nhttp://en.memory-alpha.org/wiki/Star_Trek_Night_(UK,_1996)&lt;/a&gt; &lt;a href=&quot;\nhttp://en.wikipedia.org/wiki/List_of_Horizon_episodes&quot; rel=&quot;nofollow&quot; target=&quot;_NEW&quot;&gt;\nhttp://en.wikipedia.org/wiki/List_of_Horizon_episodes&lt;/a&gt;\n\nTechnical details:\n\nMediaInfo report\n\nGeneral\nComplete name                  : BBC Horizon Special Edition E23 - The Science of Star Trek.avi\nFormat                         : AVI\nFormat/Info                    : Audio Video Interleave\nFile size                      : 956 MiB\nDuration                       : 56mn 44s\nOverall bit rate               : 2 355 Kbps\nWriting application            : Lavf52.0.0\n\nVideo\nID                             : 0\nFormat                         : xvid\nCodec ID                       : xvid\nDuration                       : 56mn 44s\nBit rate                       : 2 278 Kbps\nWidth                          : 706 pixels\nHeight                         : 472 pixels\nDisplay aspect ratio           : 3:2\nframe rate                     : 25.000 fps\nBits/(Pixel*frame)             : 0.273\nStream size                    : 924 MiB (97%)\n\nAudio\nID                             : 1\nFormat                         : MPEG Audio\nFormat version                 : Version 1\nFormat profile                 : Layer 3\nMode                           : Joint stereo\nMode extension                 : MS Stereo\nCodec ID                       : 55\nCodec ID/Hint                  : MP3\nDuration                       : 56mn 44s\nBit rate mode                  : Constant\nBit rate                       : 64.0 Kbps\nChannel(s)                     : 2 channels\nSampling rate                  : 48.0 KHz\nCompression mode               : Lossy\nStream size                    : 26.0 MiB (3%)\nAlignment                      : Aligned on interleaves\nInterleave, duration           : 24 ms (0.60 video frame)\nWriting library                : LAME3.96.1","torrent":{"xt":"urn:btih:0e57f8d34d91c2aefa0b198816a6a5fbd6a0b075","amp;dn":"BBC+Horizon+Special+%2323+-+The+Science+of+Star+Trek+%2826+August+19","amp;tr":["udp%3A%2F%2Ftracker.openbittorrent.com%3A80","udp%3A%2F%2Fopen.demonii.com%3A1337","udp%3A%2F%2Ftracker.coppersurfer.tk%3A6969","udp%3A%2F%2Fexodus.desync.com%3A6969"],"infoHash":"0e57f8d34d91c2aefa0b198816a6a5fbd6a0b075","infoHashBuffer":{"type":"Buffer","data":[14,87,248,211,77,145,194,174,250,11,25,136,22,166,165,251,214,160,176,117]},"announce":[],"urlList":[]}}